# Blender v2.80 (sub 75) OBJ File: 'Yard.blend'
# www.blender.org
mtllib tempWall.mtl
o tempwall_Cube.006
v -5.733213 -0.095547 3.367967
v -5.733213 0.095547 3.367967
v -5.733213 -0.095547 -3.569488
v -5.733213 0.095547 -3.367967
v 5.733213 -0.095547 3.367967
v 5.733213 0.095547 3.367967
v 5.733213 -0.095547 -3.569488
v 5.733213 0.095547 -3.367967
v -5.733214 5.261407 -3.367967
v -5.733214 5.261407 -3.569488
v 5.733214 5.261407 -3.569488
v 5.733214 5.261407 -3.367967
vt 0.516129 0.929635
vt 0.516129 0.931938
vt 0.059329 0.931938
vt 0.044401 0.929635
vt 0.959915 0.929635
vt 0.944988 0.931938
vt 0.540868 0.931938
vt 0.540868 0.929635
vt 0.077716 0.938161
vt 0.077716 0.935857
vt 0.927061 0.935857
vt 0.927061 0.938161
vt 0.431567 0.978317
vt 0.084735 0.978317
vt 0.084735 0.944169
vt 0.431567 0.944169
vt 0.964097 0.019002
vt 0.964097 0.908172
vt 0.441756 0.908172
vt 0.441756 0.019002
vt 0.927061 0.938279
vt 0.927061 0.940708
vt 0.077716 0.940708
vt 0.077716 0.938279
vt 0.454501 0.943821
vt 0.931795 0.943821
vt 0.931795 0.980108
vt 0.454501 0.980108
vt 0.419516 0.016224
vt 0.419516 0.905394
vt 0.018927 0.905394
vt 0.018927 0.016224
vt 0.059329 0.978317
vt 0.044401 0.978317
vt 0.959915 0.980108
vt 0.944988 0.980108
vn -1.0000 0.0000 0.0000
vn 1.0000 0.0000 0.0000
vn 0.0000 0.0000 1.0000
vn 0.0000 -1.0000 0.0000
vn 0.0000 1.0000 0.0000
vn 0.0000 0.0000 -1.0000
usemtl tempwall_mat
s off
f 1/1/1 2/2/1 4/3/1 3/4/1
f 7/5/2 8/6/2 6/7/2 5/8/2
f 5/9/3 6/10/3 2/11/3 1/12/3
f 3/13/4 7/14/4 5/15/4 1/16/4
f 8/17/5 4/18/5 2/19/5 6/20/5
f 10/21/5 9/22/5 12/23/5 11/24/5
f 7/25/6 3/26/6 10/27/6 11/28/6
f 4/29/3 8/30/3 12/31/3 9/32/3
f 3/4/1 4/3/1 9/33/1 10/34/1
f 8/6/2 7/5/2 11/35/2 12/36/2
